subject11_noload_free_trial03_ground_reaction
version=1
nRows=27
nColumns=19
inDegrees=no
endheader
time	ground_force_r_vx	ground_force_r_vy	ground_force_r_vz	ground_force_r_px	ground_force_r_py	ground_force_r_pz	ground_torque_r_x	ground_torque_r_y	ground_torque_r_z	ground_force_l_vx	ground_force_l_vy	ground_force_l_vz	ground_force_l_px	ground_force_l_py	ground_force_l_pz	ground_torque_l_x	ground_torque_l_y	ground_torque_l_z
      1.19000000	      0.00000000	      0.00000000	      0.00000000	      2.81753500	      0.00000000	      0.26584000	      0.00000000	      0.00000000	      0.00000000	    -21.40131500	    649.70814700	     33.90158900	      0.88966700	      0.00000000	     -0.32360200	      0.00000000	     -0.57306300	      0.00000000
      1.20000000	      0.00000000	      0.00000000	      0.00000000	      2.88709600	      0.00000000	      0.27222700	      0.00000000	      0.00000000	      0.00000000	    -17.20022600	    649.45023100	     33.23010000	      0.89354900	      0.00000000	     -0.32372300	      0.00000000	     -0.80846900	      0.00000000
      1.21000000	      0.00000000	      0.00000000	      0.00000000	      2.94518000	      0.00000000	      0.27598900	      0.00000000	      0.00000000	      0.00000000	    -12.83973200	    651.04586200	     33.14670100	      0.89723200	      0.00000000	     -0.32392200	      0.00000000	     -1.05444200	      0.00000000
      1.22000000	      0.00000000	      0.00000000	      0.00000000	      2.99158200	      0.00000000	      0.27711600	      0.00000000	      0.00000000	      0.00000000	     -8.23527800	    654.84309900	     33.39439600	      0.90071900	      0.00000000	     -0.32414400	      0.00000000	     -1.32644600	      0.00000000
      1.23000000	      0.00000000	      0.00000000	      0.00000000	      3.02609500	      0.00000000	      0.27559700	      0.00000000	      0.00000000	      0.00000000	     -3.44146200	    661.23050900	     33.77738100	      0.90405100	      0.00000000	     -0.32432000	      0.00000000	     -1.63244300	      0.00000000
      1.24000000	      0.00000000	      0.00000000	      0.00000000	      3.04851100	      0.00000000	      0.27142200	      0.00000000	      0.00000000	      0.00000000	      1.43209700	    670.50086200	     34.18707400	      0.90728600	      0.00000000	     -0.32441500	      0.00000000	     -1.96797900	      0.00000000
      1.25000000	      0.00000000	      0.00000000	      0.00000000	      3.05862500	      0.00000000	      0.26458000	      0.00000000	      0.00000000	      0.00000000	      6.27498000	    682.68596500	     34.56561700	      0.91047200	      0.00000000	     -0.32443800	      0.00000000	     -2.32279800	      0.00000000
      1.26000000	      0.00000000	      0.00000000	      0.00000000	      3.05622800	      0.00000000	      0.25506200	      0.00000000	      0.00000000	      0.00000000	     11.04547600	    697.53307800	     34.92498700	      0.91365700	      0.00000000	     -0.32439100	      0.00000000	     -2.67094300	      0.00000000
      1.27000000	      0.00000000	      0.00000000	      0.00000000	      3.04111400	      0.00000000	      0.24285600	      0.00000000	      0.00000000	      0.00000000	     15.78632600	    714.41626700	     35.36039200	      0.91688700	      0.00000000	     -0.32427700	      0.00000000	     -2.98599100	      0.00000000
      1.28000000	      0.00000000	      0.00000000	      0.00000000	      3.01307700	      0.00000000	      0.22795300	      0.00000000	      0.00000000	      0.00000000	     20.51072000	    732.43504100	     36.00240300	      0.92021500	      0.00000000	     -0.32412800	      0.00000000	     -3.24297200	      0.00000000
      1.29000000	      0.00000000	      0.00000000	      0.00000000	      2.97190800	      0.00000000	      0.21034300	      0.00000000	      0.00000000	      0.00000000	     25.18028900	    750.66823500	     36.95548900	      0.92370500	      0.00000000	     -0.32396900	      0.00000000	     -3.42486700	      0.00000000
      1.30000000	      0.00000000	      0.00000000	      0.00000000	      2.91740300	      0.00000000	      0.19001400	      0.00000000	      0.00000000	      0.00000000	     29.79514700	    768.43407600	     38.20747700	      0.92741300	      0.00000000	     -0.32379300	      0.00000000	     -3.52685700	      0.00000000
      1.31000000	      0.00000000	      0.00000000	      0.00000000	      2.84935200	      0.00000000	      0.16695700	      0.00000000	      0.00000000	      0.00000000	     34.45325400	    785.57313800	     39.59414100	      0.93134800	      0.00000000	     -0.32357200	      0.00000000	     -3.55758100	      0.00000000
      1.32000000	      0.00000000	      0.00000000	      0.00000000	      2.76755100	      0.00000000	      0.14116200	      0.00000000	      0.00000000	      0.00000000	     39.28907400	    802.36921800	     40.87363300	      0.93545400	      0.00000000	     -0.32326800	      0.00000000	     -3.52886400	      0.00000000
      1.33000000	      0.00000000	      0.00000000	      0.00000000	      2.67179100	      0.00000000	      0.11261700	      0.00000000	      0.00000000	      0.00000000	     44.44201600	    819.29093600	     41.81024600	      0.93964900	      0.00000000	     -0.32285500	      0.00000000	     -3.45346100	      0.00000000
      1.34000000	      0.00000000	      0.00000000	      0.00000000	      2.56186700	      0.00000000	      0.08131400	      0.00000000	      0.00000000	      0.00000000	     49.96745100	    836.70809300	     42.24105900	      0.94383300	      0.00000000	     -0.32233300	      0.00000000	     -3.34695400	      0.00000000
      1.35000000	      0.00000000	      0.00000000	      0.00000000	      2.43757000	      0.00000000	      0.04724100	      0.00000000	      0.00000000	      0.00000000	     55.86470000	    854.70140800	     42.06811600	      0.94790200	      0.00000000	     -0.32174400	      0.00000000	     -3.21659200	      0.00000000
      1.36000000	      0.00000000	      0.00000000	      0.00000000	      2.29869500	      0.00000000	      0.01038800	      0.00000000	      0.00000000	      0.00000000	     62.22707500	    873.03828700	     41.27958300	      0.95175800	      0.00000000	     -0.32112200	      0.00000000	     -3.06284500	      0.00000000
      1.37000000	      0.00000000	      0.00000000	      0.00000000	      2.14503400	      0.00000000	     -0.02925600	      0.00000000	      0.00000000	      0.00000000	     69.24000700	    891.07780300	     40.06671500	      0.95531700	      0.00000000	     -0.32047900	      0.00000000	     -2.87620100	      0.00000000
      1.38000000	      0.00000000	      0.00000000	      0.00000000	      1.97638000	      0.00000000	     -0.07169900	      0.00000000	      0.00000000	      0.00000000	     77.00525700	    907.54356600	     38.81457100	      0.95857000	      0.00000000	     -0.31984600	      0.00000000	     -2.62456900	      0.00000000
      1.39000000	      0.00000000	      0.00000000	      0.00000000	      1.79252700	      0.00000000	     -0.11695400	      0.00000000	      0.00000000	      0.00000000	     85.54309000	    920.72867000	     37.86203100	      0.96155200	      0.00000000	     -0.31924500	      0.00000000	     -2.28210500	      0.00000000
      1.40000000	      0.09939500	      8.75510900	     -2.06233300	      1.62960100	      0.00000000	     -0.15615100	      0.00000000	     -1.34497100	      0.00000000	     94.85687000	    928.97571500	     37.36015900	      0.96428600	      0.00000000	     -0.31868800	      0.00000000	     -1.85881100	      0.00000000
      1.41000000	      2.82242400	     17.52383200	     -1.26518200	      1.54738600	      0.00000000	     -0.17529900	      0.00000000	     -1.15505500	      0.00000000	    104.85724400	    930.88372100	     37.20268100	      0.96677400	      0.00000000	     -0.31817400	      0.00000000	     -1.39497900	      0.00000000
      1.42000000	      7.50558100	     33.86735700	      0.20341300	      1.50760900	      0.00000000	     -0.18471300	      0.00000000	     -1.06439900	      0.00000000	    115.25746800	    925.23443700	     37.06789100	      0.96904500	      0.00000000	     -0.31767300	      0.00000000	     -0.94571100	      0.00000000
      1.43000000	     14.32905100	     62.06926200	      2.66348200	      1.48784800	      0.00000000	     -0.18958500	      0.00000000	     -1.01868400	      0.00000000	    125.75119400	    910.95240100	     36.59948300	      0.97113700	      0.00000000	     -0.31716000	      0.00000000	     -0.56153400	      0.00000000
      1.44000000	     20.59498200	    103.89738600	      6.10570100	      1.47885600	      0.00000000	     -0.19222800	      0.00000000	     -1.02159200	      0.00000000	    135.82335100	    887.06997000	     35.57473900	      0.97310900	      0.00000000	     -0.31663500	      0.00000000	     -0.27050200	      0.00000000
      1.45000000	     19.86031700	    154.71903800	      9.78544000	      1.47645100	      0.00000000	     -0.19376400	      0.00000000	     -1.09888600	      0.00000000	    144.62883100	    852.64871800	     33.86528700	      0.97502700	      0.00000000	     -0.31609700	      0.00000000	     -0.08622700	      0.00000000
